# xmcd CD database file
#
# Track frame offsets:
#	183
#	13663
#	26298
#	39723
#	52113
#	63470
#	78508
#	90963
#	102953
#	113715
#	123973
#	140435
#	151413
#	162088
#	173565
#	185730
#	197298
#	209668
#	221405
#	232850
#
# Disc length: 3284 seconds
#
# Revision: 0
# Processed by: cddbd v1.5.2PL0 Copyright (c) Steve Scherf et al.
# Submitted via: CDex 1.70beta2
#
DISCID=040cd214
DTITLE=Conway Twitty - Country Gold
DYEAR=1996
DGENRE=Country
TTITLE0=Born To Lose
TTITLE1=Love Is The Foundation
TTITLE2=It's Time To Pay The Fiddler
TTITLE3=D I V O R C E
TTITLE4=Folsom Prison Blues
TTITLE5=Lost Her Love On Our Last Date
TTITLE6=I Can't Stop Loving You
TTITLE7=I can't See Me Without You
TTITLE8=Hello Darlin'
TTITLE9=I'd Rather Be Gone
TTITLE10=With Pen In Hand
TTITLE11=Wine Me Up
TTITLE12=I Fall To Pieces
TTITLE13=Joy To The World
TTITLE14=Back Street Affair
TTITLE15=Little Girl Cried
TTITLE16=Rocky Top
TTITLE17=Rueben James
TTITLE18=I Never Once Stopped Loving You
TTITLE19=Okie From Muskogee
EXTD=YEAR: 1996
EXTT0=
EXTT1=
EXTT2=
EXTT3=
EXTT4=
EXTT5=
EXTT6=
EXTT7=
EXTT8=
EXTT9=
EXTT10=
EXTT11=
EXTT12=
EXTT13=
EXTT14=
EXTT15=
EXTT16=
EXTT17=
EXTT18=
EXTT19=
PLAYORDER=
